<svg  viewBox="0 0 764 331" width="302" height="134" class="w-full h-full" fill="none" xmlns="http://www.w3.org/2000/svg">
<title>Amica Centro para los derechos del immigrante</title>
<g class="subtitle">
  <path d="M13.0381 320.008C5.25231 320.008 0 313.96 0 298.903V294.241C0 279.877 5.37589 272.884 13.0999 272.884C20.8239 272.884 24.4078 278.806 25.0257 288.697L20.5767 289.579C20.2677 280.885 17.3635 276.79 12.9145 276.79C8.89803 276.79 4.32543 280.633 4.32543 293.737V299.092C4.32543 312.322 8.89803 316.102 13.0999 316.102C18.0432 316.102 20.3295 312.196 20.8239 303.313L25.0875 304.006C24.2842 313.96 20.6385 320.008 13.0381 320.008Z" fill="currentColor"/>
  <path d="M38.7754 289.012C34.5735 289.012 32.7816 293.548 32.5962 300.226H44.6456C44.6456 292.981 42.7918 289.012 38.7754 289.012ZM48.971 308.479C48.2295 314.779 45.2017 319.63 39.0843 319.63C31.4839 319.63 28.2707 312.322 28.2707 304.132V301.297C28.2707 293.296 31.9783 285.799 38.8372 285.799C46.1286 285.799 49.0946 292.477 49.0946 302.494V303.124H32.5962V304.132C32.5962 310.873 34.2646 316.417 39.3315 316.417C43.5333 316.417 45.1399 312.574 45.6961 307.534L48.971 308.479Z" fill="currentColor"/>
  <path d="M53.3162 319V286.429H56.7766L57.0856 292.477H57.2091C58.6303 289.264 61.3492 285.799 65.9218 285.799C70.0618 285.799 71.9156 288.949 71.9156 292.918V319H67.8373V293.8C67.8373 290.335 66.9105 289.201 64.377 289.201C60.5459 289.201 57.3945 294.304 57.3945 298.462V319H53.3162Z" fill="currentColor"/>
  <path d="M87.057 319C85.574 319 83.7203 318.811 82.608 318.307C80.2599 317.299 79.7038 315.598 79.7038 311.692V289.894H74.8222V286.429H79.7038V275.908H83.7821V286.429H89.8995V289.894H83.7821V312.007C83.7821 313.33 83.8438 314.716 85.1415 315.409C85.6976 315.724 86.5627 315.85 87.4896 315.85H90.6409V319H87.057Z" fill="currentColor"/>
  <path d="M94.292 319V286.429H97.7523L98.1849 293.044H98.432C99.6679 288.508 101.831 285.799 104.302 285.799C104.982 285.799 105.662 286.051 106.032 286.429V290.776C105.538 290.524 105.044 290.398 104.426 290.398C101.089 290.398 98.3702 294.871 98.3702 301.045V319H94.292Z" fill="currentColor"/>
  <path d="M128.638 304.069C128.638 312.637 125.301 319.63 118.072 319.63C110.966 319.63 107.567 312.637 107.567 304.069V301.234C107.567 292.666 110.966 285.799 118.133 285.799C125.24 285.799 128.638 292.666 128.638 301.234V304.069ZM111.893 304.069C111.893 311.503 113.746 316.417 118.072 316.417C122.459 316.417 124.313 311.503 124.313 304.069V301.234C124.313 293.863 122.459 289.012 118.072 289.012C113.746 289.012 111.893 293.863 111.893 301.234V304.069Z" fill="currentColor"/>
  <path d="M152.628 315.85C156.212 315.85 158.684 312.385 158.684 303.943V301.549C158.684 293.485 156.336 289.264 152.567 289.264C148.921 289.264 146.078 293.422 146.078 301.36V304.195C146.078 312.889 149.724 315.85 152.628 315.85ZM141.877 330.151V286.429H145.275L145.584 292.603H145.893C146.758 289.264 149.353 285.799 153.741 285.799C159.24 285.799 162.948 291.784 162.948 301.36V304.132C162.948 314.212 158.19 319.63 153.184 319.63C150.342 319.63 147.87 317.866 146.202 314.275H145.893V330.151H141.877Z" fill="currentColor"/>
  <path d="M172.872 319.63C168.485 319.63 165.828 316.48 165.828 311.377C165.828 305.644 169.412 303.439 172.749 301.486C175.097 300.1 178.125 298.714 179.731 297.832V294.493C179.731 290.587 178.248 289.012 175.468 289.012C172.131 289.012 170.648 291.28 170.215 295.753L166.755 295.249C167.126 289.264 170.154 285.799 175.591 285.799C180.905 285.799 183.748 288.382 183.748 294.43V312.259C183.748 314.275 184.18 315.472 184.922 315.976C185.663 316.48 186.776 316.543 187.826 316.543V319C187.146 319.441 185.972 319.63 185.107 319.63C181.832 319.63 180.411 317.299 180.164 313.393H179.917C178.804 316.858 176.642 319.63 172.872 319.63ZM174.046 316.354C177.26 316.354 179.731 312.763 179.731 308.164V300.919C178.248 301.738 176.642 302.557 174.17 304.132C172.069 305.518 169.783 306.904 169.783 311.125C169.783 314.275 171.08 316.354 174.046 316.354Z" fill="currentColor"/>
  <path d="M190.818 319V286.429H194.278L194.711 293.044H194.958C196.194 288.508 198.356 285.799 200.828 285.799C201.508 285.799 202.187 286.051 202.558 286.429V290.776C202.064 290.524 201.569 290.398 200.952 290.398C197.615 290.398 194.896 294.871 194.896 301.045V319H190.818Z" fill="currentColor"/>
  <path d="M210.65 319.63C206.263 319.63 203.606 316.48 203.606 311.377C203.606 305.644 207.19 303.439 210.526 301.486C212.874 300.1 215.902 298.714 217.509 297.832V294.493C217.509 290.587 216.026 289.012 213.245 289.012C209.908 289.012 208.425 291.28 207.993 295.753L204.533 295.249C204.903 289.264 207.931 285.799 213.369 285.799C218.683 285.799 221.525 288.382 221.525 294.43V312.259C221.525 314.275 221.958 315.472 222.699 315.976C223.441 316.48 224.553 316.543 225.604 316.543V319C224.924 319.441 223.75 319.63 222.885 319.63C219.61 319.63 218.189 317.299 217.941 313.393H217.694C216.582 316.858 214.419 319.63 210.65 319.63ZM211.824 316.354C215.037 316.354 217.509 312.763 217.509 308.164V300.919C216.026 301.738 214.419 302.557 211.948 304.132C209.847 305.518 207.56 306.904 207.56 311.125C207.56 314.275 208.858 316.354 211.824 316.354Z" fill="currentColor"/>
  <path d="M237.376 319V272.254H241.455V319H237.376Z" fill="currentColor"/>
  <path d="M266.955 304.069C266.955 312.637 263.619 319.63 256.389 319.63C249.283 319.63 245.884 312.637 245.884 304.069V301.234C245.884 292.666 249.283 285.799 256.451 285.799C263.557 285.799 266.955 292.666 266.955 301.234V304.069ZM250.21 304.069C250.21 311.503 252.064 316.417 256.389 316.417C260.776 316.417 262.63 311.503 262.63 304.069V301.234C262.63 293.863 260.776 289.012 256.389 289.012C252.064 289.012 250.21 293.863 250.21 301.234V304.069Z" fill="currentColor"/>
  <path d="M278.58 319.63C272.401 319.63 269.744 315.661 268.756 309.928L272.216 308.857C273.019 313.708 274.811 316.354 278.519 316.354C281.176 316.354 283.215 314.275 283.215 311.44C283.215 307.975 282.164 307.156 277.715 304.573C274.131 302.494 270.362 300.163 270.362 294.556C270.362 289.012 273.946 285.799 278.395 285.799C283.895 285.799 286.181 289.264 286.922 295.375L283.647 296.257C282.844 290.776 281.176 289.075 278.271 289.075C275.985 289.075 274.07 290.839 274.07 293.8C274.07 296.95 275.491 298.21 279.26 300.604C284.512 303.943 287.108 305.014 287.108 310.621C287.108 315.85 283.895 319.63 278.58 319.63Z" fill="currentColor"/>
  <path d="M300.45 319V273.892H309.039C320.224 273.892 324.735 281.578 324.735 294.241V298.777C324.735 311.377 320.224 319 309.039 319H300.45ZM304.652 315.031H308.916C317.196 315.031 320.409 310.243 320.409 298.903V294.115C320.409 282.775 316.455 277.861 308.978 277.861H304.652V315.031Z" fill="currentColor"/>
  <path d="M338.401 289.012C334.199 289.012 332.407 293.548 332.222 300.226H344.271C344.271 292.981 342.417 289.012 338.401 289.012ZM348.596 308.479C347.855 314.779 344.827 319.63 338.71 319.63C331.109 319.63 327.896 312.322 327.896 304.132V301.297C327.896 293.296 331.604 285.799 338.463 285.799C345.754 285.799 348.72 292.477 348.72 302.494V303.124H332.222V304.132C332.222 310.873 333.89 316.417 338.957 316.417C343.159 316.417 344.765 312.574 345.321 307.534L348.596 308.479Z" fill="currentColor"/>
  <path d="M352.942 319V286.429H356.402L356.835 293.044H357.082C358.318 288.508 360.48 285.799 362.952 285.799C363.632 285.799 364.311 286.051 364.682 286.429V290.776C364.188 290.524 363.693 290.398 363.076 290.398C359.739 290.398 357.02 294.871 357.02 301.045V319H352.942Z" fill="currentColor"/>
  <path d="M376.721 289.012C372.52 289.012 370.728 293.548 370.542 300.226H382.592C382.592 292.981 380.738 289.012 376.721 289.012ZM386.917 308.479C386.176 314.779 383.148 319.63 377.03 319.63C369.43 319.63 366.217 312.322 366.217 304.132V301.297C366.217 293.296 369.924 285.799 376.783 285.799C384.075 285.799 387.041 292.477 387.041 302.494V303.124H370.542V304.132C370.542 310.873 372.211 316.417 377.277 316.417C381.479 316.417 383.086 312.574 383.642 307.534L386.917 308.479Z" fill="currentColor"/>
  <path d="M400.284 319.63C393.301 319.63 389.903 312.952 389.903 304.069V301.297C389.903 292.603 393.858 285.799 400.84 285.799C406.525 285.799 409.12 289.579 409.8 296.257L406.401 297.202C405.907 291.847 404.362 289.012 400.655 289.012C396.515 289.012 394.228 293.989 394.228 301.486V303.88C394.228 311.188 396.144 316.417 400.531 316.417C404.609 316.417 406.031 312.637 406.525 307.66L409.8 308.605C409.12 314.968 406.339 319.63 400.284 319.63Z" fill="currentColor"/>
  <path d="M413.923 319V272.254H418.063V291.721H418.186C419.422 289.264 421.955 285.799 426.528 285.799C430.668 285.799 432.522 288.949 432.522 292.918V319H428.444V293.8C428.444 290.335 427.517 289.201 424.983 289.201C421.09 289.201 418.001 294.43 418.001 298.336V319H413.923Z" fill="currentColor"/>
  <path d="M457.924 304.069C457.924 312.637 454.587 319.63 447.357 319.63C440.251 319.63 436.853 312.637 436.853 304.069V301.234C436.853 292.666 440.251 285.799 447.419 285.799C454.525 285.799 457.924 292.666 457.924 301.234V304.069ZM441.178 304.069C441.178 311.503 443.032 316.417 447.357 316.417C451.744 316.417 453.598 311.503 453.598 304.069V301.234C453.598 293.863 451.744 289.012 447.357 289.012C443.032 289.012 441.178 293.863 441.178 301.234V304.069Z" fill="currentColor"/>
  <path d="M469.549 319.63C463.37 319.63 460.712 315.661 459.724 309.928L463.184 308.857C463.987 313.708 465.779 316.354 469.487 316.354C472.144 316.354 474.183 314.275 474.183 311.44C474.183 307.975 473.133 307.156 468.684 304.573C465.1 302.494 461.33 300.163 461.33 294.556C461.33 289.012 464.914 285.799 469.363 285.799C474.863 285.799 477.149 289.264 477.891 295.375L474.616 296.257C473.812 290.776 472.144 289.075 469.24 289.075C466.953 289.075 465.038 290.839 465.038 293.8C465.038 296.95 466.459 298.21 470.228 300.604C475.481 303.943 478.076 305.014 478.076 310.621C478.076 315.85 474.863 319.63 469.549 319.63Z" fill="currentColor"/>
  <path d="M500.131 316.354C503.715 316.354 506.496 312.574 506.496 304.006V301.108C506.496 292.54 503.839 289.012 500.193 289.012C496.733 289.012 493.952 292.477 493.952 301.36V303.88C493.952 311.692 496.424 316.354 500.131 316.354ZM499.637 319.63C493.149 319.63 489.627 313.015 489.627 304.069V301.171C489.689 291.595 494.199 285.799 499.884 285.799C502.788 285.799 505.198 287.437 506.496 290.713H506.743V272.254H510.636V319.378H507.608L506.867 313.645H506.62C505.445 317.236 502.541 319.63 499.637 319.63Z" fill="currentColor"/>
  <path d="M525.567 289.012C521.365 289.012 519.574 293.548 519.388 300.226H531.438C531.438 292.981 529.584 289.012 525.567 289.012ZM535.763 308.479C535.021 314.779 531.994 319.63 525.876 319.63C518.276 319.63 515.063 312.322 515.063 304.132V301.297C515.063 293.296 518.77 285.799 525.629 285.799C532.921 285.799 535.887 292.477 535.887 302.494V303.124H519.388V304.132C519.388 310.873 521.057 316.417 526.123 316.417C530.325 316.417 531.932 312.574 532.488 307.534L535.763 308.479Z" fill="currentColor"/>
  <path d="M540.108 319V272.254H544.187V319H540.108Z" fill="currentColor"/>
  <path d="M559.189 319V273.892H563.391V319H559.189Z" fill="currentColor"/>
  <path d="M569.65 319V286.429H573.11L573.419 292.477H573.543C574.964 289.264 577.683 285.799 582.256 285.799C586.396 285.799 588.249 288.949 588.249 292.918V319H584.171V293.8C584.171 290.335 583.244 289.201 580.711 289.201C576.88 289.201 573.728 294.304 573.728 298.462V319H569.65Z" fill="currentColor"/>
  <path d="M598.139 298.525V319H594.06V286.429H597.521L597.83 292.477H597.891C599.745 288.508 602.649 285.799 606.419 285.799C610.497 285.799 612.165 288.508 612.165 292.477H612.227C614.204 288.256 616.8 285.799 620.445 285.799C624.524 285.799 626.192 288.508 626.192 292.54V319H622.114V292.918C622.114 290.335 621.434 289.201 619.21 289.201C615.378 289.201 612.165 294.808 612.165 299.659V319H608.087V292.918C608.087 290.335 607.407 289.201 605.183 289.201C601.352 289.201 598.139 294.178 598.139 298.525Z" fill="currentColor"/>
  <path d="M631.987 280.696V275.278H636.066V280.696H631.987ZM631.987 319V286.429H636.066V319H631.987Z" fill="currentColor"/>
  <path d="M650.32 308.038C653.163 308.038 655.696 305.455 655.696 299.344V297.643C655.696 291.406 653.163 289.012 650.32 289.012C647.478 289.012 645.006 291.406 645.006 297.643V299.344C645.006 305.455 647.478 308.038 650.32 308.038ZM650.753 330.781C644.944 330.781 639.816 328.702 638.703 322.276L642.658 321.772C643.276 324.985 645.562 327.568 650.753 327.568C657.117 327.568 658.415 325.237 658.415 323.095C658.415 321.016 657.55 319.945 654.893 319.945H647.663C643.956 319.945 640.681 318.496 640.681 314.212C640.681 311.566 642.411 309.991 644.141 308.668V308.605C642.287 306.841 640.99 303.187 640.99 299.344V297.643C640.99 290.461 645.006 285.799 650.32 285.799C654.522 285.799 657.426 288.193 658.353 292.54H658.477C658.477 287.059 660.64 285.799 662.123 285.799C663.173 285.799 663.914 286.24 664.471 286.744L664.224 290.335C663.915 290.146 663.173 289.768 662.493 289.768C660.022 289.768 659.713 292.918 659.713 298.021V298.714C659.713 305.959 655.758 311.314 650.382 311.314C648.714 311.314 646.984 310.936 645.748 309.928C644.883 310.558 644.018 311.818 644.018 313.267C644.018 314.779 644.944 315.787 647.416 315.787H655.078C660.083 315.787 662.184 317.74 662.184 322.528C662.184 327.127 658.477 330.781 650.753 330.781Z" fill="currentColor"/>
  <path d="M666.084 319V286.429H669.544L669.977 293.044H670.224C671.46 288.508 673.623 285.799 676.094 285.799C676.774 285.799 677.454 286.051 677.824 286.429V290.776C677.33 290.524 676.836 290.398 676.218 290.398C672.881 290.398 670.162 294.871 670.162 301.045V319H666.084Z" fill="currentColor"/>
  <path d="M685.916 319.63C681.529 319.63 678.872 316.48 678.872 311.377C678.872 305.644 682.456 303.439 685.793 301.486C688.141 300.1 691.169 298.714 692.775 297.832V294.493C692.775 290.587 691.292 289.012 688.512 289.012C685.175 289.012 683.692 291.28 683.259 295.753L679.799 295.249C680.17 289.264 683.198 285.799 688.635 285.799C693.949 285.799 696.792 288.382 696.792 294.43V312.259C696.792 314.275 697.224 315.472 697.966 315.976C698.707 316.48 699.82 316.543 700.87 316.543V319C700.19 319.441 699.016 319.63 698.151 319.63C694.876 319.63 693.455 317.299 693.208 313.393H692.961C691.848 316.858 689.686 319.63 685.916 319.63ZM687.09 316.354C690.304 316.354 692.775 312.763 692.775 308.164V300.919C691.292 301.738 689.686 302.557 687.214 304.132C685.113 305.518 682.827 306.904 682.827 311.125C682.827 314.275 684.124 316.354 687.09 316.354Z" fill="currentColor"/>
  <path d="M703.862 319V286.429H707.322L707.631 292.477H707.754C709.176 289.264 711.894 285.799 716.467 285.799C720.607 285.799 722.461 288.949 722.461 292.918V319H718.383V293.8C718.383 290.335 717.456 289.201 714.922 289.201C711.091 289.201 707.94 294.304 707.94 298.462V319H703.862Z" fill="currentColor"/>
  <path d="M737.602 319C736.119 319 734.266 318.811 733.153 318.307C730.805 317.299 730.249 315.598 730.249 311.692V289.894H725.368V286.429H730.249V275.908H734.327V286.429H740.445V289.894H734.327V312.007C734.327 313.33 734.389 314.716 735.687 315.409C736.243 315.724 737.108 315.85 738.035 315.85H741.186V319H737.602Z" fill="currentColor"/>
  <path d="M753.681 289.012C749.479 289.012 747.687 293.548 747.502 300.226H759.551C759.551 292.981 757.697 289.012 753.681 289.012ZM763.876 308.479C763.135 314.779 760.107 319.63 753.99 319.63C746.389 319.63 743.176 312.322 743.176 304.132V301.297C743.176 293.296 746.884 285.799 753.743 285.799C761.034 285.799 764 292.477 764 302.494V303.124H747.502V304.132C747.502 310.873 749.17 316.417 754.237 316.417C758.439 316.417 760.045 312.574 760.601 307.534L763.876 308.479Z" fill="currentColor"/>
</g>
<path d="M64.6717 194.632L56.3274 234.894H5.62207L59.8569 0.511585H120.01C124.63 0.511585 128.643 3.75375 129.696 8.33883L181.812 234.894H123.082L115.703 194.632H64.6717ZM73.9814 148.807H107.359L99.3341 104.287L92.275 60.092H90.67L82.9652 104.287L73.9814 148.807Z" fill="currentColor"/>
<path d="M246.441 234.9H191.886V58.7811H230.291C234.36 58.7811 237.896 61.646 238.811 65.6875L244.836 92.1684C256.71 64.3446 275.323 55.5069 289.122 55.5069C310.625 55.5069 321.533 70.5667 322.819 92.1684H323.138C332.122 64.3446 352.34 55.5069 365.499 55.5069C388.282 55.5069 399.196 72.2038 399.196 95.7686V234.894H344.642V107.554C344.642 99.6951 341.752 95.4425 336.617 95.4425C328.273 95.4425 323.138 108.865 323.138 137.341L322.819 234.894H268.264V107.554C268.264 99.6951 265.374 95.4425 260.239 95.4425C251.575 95.4425 246.441 105.917 246.441 128.178V234.9Z" fill="currentColor"/>
<path d="M422.963 0H467.574V35.2162C467.574 40.8181 463.123 45.3648 457.625 45.3648H413.014V10.1486C413.014 4.54671 417.465 0 422.963 0ZM413.014 58.7811H467.568V234.894H413.014V58.7811Z" fill="currentColor"/>
<path d="M477.467 153.386V139.963C477.467 82.6785 508.6 55.5069 548.71 55.5069C582.514 55.5069 604.914 65.7258 607.114 112.363C607.315 116.654 603.942 120.254 599.729 120.293L568.283 120.612C567.963 97.0412 562.183 90.6144 551.914 90.6144C537.42 90.6144 531.1 102.976 531.1 133.421V159.934C531.1 192.343 540.228 201.507 551.914 201.507C564.427 201.507 568.922 193.034 570.207 170.121H609.747C609.747 216.509 591.842 238.168 545.494 238.168C509.553 238.168 477.461 211.649 477.461 153.386H477.467Z" fill="currentColor"/>
<path d="M618.706 194.306C618.706 161.897 639.564 151.423 656.252 142.259C668.766 135.385 679.68 129.821 688.984 124.91V106.908C688.984 96.4337 685.454 90.8702 676.79 90.8702C664.879 90.8702 662.127 101.447 661.537 113.028C661.33 117.063 658.058 120.229 654.096 120.229H621.916C621.916 72.5939 645.576 55.5197 685.78 55.5197C725.985 55.5197 743.225 72.5427 743.225 107.567V185.149C743.225 194.639 744.19 199.883 747.074 202.824C748.679 205.446 751.569 206.098 755.418 206.098V232.618C751.889 235.559 738.09 238.181 730.066 238.181C712.092 238.181 697.334 230.648 696.049 205.446H694.124C687.385 228.359 674.226 238.181 654.973 238.181C632.831 238.181 618.706 223.78 618.706 194.313V194.306ZM688.99 183.179V155.682C686.1 157.645 684.175 158.63 679.041 162.23C671.982 167.141 670.057 173.357 670.057 187.106C670.057 200.855 673.587 204.787 679.36 204.787C688.344 204.787 688.99 194.639 688.99 183.179Z" fill="currentColor"/>
</svg>