<svg width="302" height="134" viewBox="0 0 302 134" class="w-full h-full" fill="none" xmlns="http://www.w3.org/2000/svg">
  <title>Amica Center for Immigrant Rights</title>
  <path d="M0 117.437C0 112.476 2.36319 107.619 7.95028 107.619C12.3671 107.619 14.5491 110.297 15.2764 114.365L13.0416 114.968C12.5735 111.581 10.9879 109.559 7.95028 109.559C4.46967 109.559 2.33802 112.656 2.33802 117.434C2.33802 122.212 4.46716 125.309 7.95028 125.309C10.9653 125.309 12.5483 123.051 13.0944 119.901L15.3293 120.503C14.5491 124.205 12.3671 127.249 7.95028 127.249C2.36571 127.249 0 122.392 0 117.431V117.437Z" fill="currentColor"/>
  <path d="M23.0707 127.096C18.8879 127.096 16.94 123.946 16.94 120.035C16.94 116.386 19.0968 112.974 22.8643 112.974C26.9439 112.974 28.6829 116.361 28.6829 120.246H19.122C19.1748 123.265 20.2645 125.601 23.2267 125.601C25.6679 125.601 26.5261 123.791 26.9691 121.82L28.5546 122.451C27.9304 124.917 26.4506 127.096 23.0732 127.096H23.0707ZM19.1723 118.906H26.3701C26.2921 116.02 25.2527 114.469 22.8618 114.469C20.4709 114.469 19.4063 116.229 19.1723 118.906Z" fill="currentColor"/>
  <path d="M31.1216 113.236H32.8355L33.0695 116.544H33.1224C34.0586 113.971 35.8253 112.974 37.9293 112.974C40.7354 112.974 41.4376 114.734 41.4376 116.964V126.835H39.3865V117.386C39.3865 115.339 38.7623 114.551 37.2297 114.551C34.8665 114.551 33.1778 116.992 33.1778 119.695V126.835H31.1241V113.239L31.1216 113.236Z" fill="currentColor"/>
  <path d="M47.8024 126.598C46.1665 125.995 46.0105 125.261 46.0105 122.687V114.917H43.1012V113.236H46.0105V107.802H48.0893V113.236H51.6479V114.917H48.0893V122.817C48.0893 124.208 48.1144 124.917 48.8946 125.205C49.2067 125.309 49.7 125.362 50.2184 125.362H52.0632V126.832H50.1404C49.335 126.832 48.3737 126.807 47.8024 126.596V126.598Z" fill="currentColor"/>
  <path d="M59.4396 127.096C55.2569 127.096 53.3089 123.946 53.3089 120.035C53.3089 116.386 55.4657 112.974 59.2333 112.974C63.3128 112.974 65.0519 116.361 65.0519 120.246H55.4909C55.5438 123.265 56.6335 125.601 59.5957 125.601C62.0369 125.601 62.8951 123.791 63.338 121.82L64.9235 122.451C64.2994 124.917 62.8196 127.096 59.4421 127.096H59.4396ZM55.5438 118.906H62.7415C62.6635 116.02 61.6241 114.469 59.2333 114.469C56.8424 114.469 55.7778 116.229 55.5438 118.906Z" fill="currentColor"/>
  <path d="M67.4931 113.236H69.207L69.4662 116.859H69.519C70.2464 114.156 71.4947 112.974 72.9493 112.974C73.4174 112.974 73.7018 113.106 73.9107 113.236V115.257C73.5986 115.153 73.3142 115.125 73.0802 115.125C71.1574 115.125 69.5467 117.093 69.5467 120.086V126.832H67.4931V113.236Z" fill="currentColor"/>
  <path d="M81.9642 114.917H79.5733V113.236H81.9642V110.426C81.9642 107.853 82.9784 106.96 84.6671 106.516C85.5253 106.279 86.5899 106.304 87.7325 106.304V107.932C86.5899 107.932 85.7317 107.932 85.1352 108.143C84.355 108.433 84.0178 109.14 84.0178 110.795V113.236H87.058V114.917H84.0178V126.835H81.9642V114.917Z" fill="currentColor"/>
  <path d="M93.8103 127.096C89.7584 127.096 87.886 123.659 87.886 120.01C87.886 116.361 89.7559 112.974 93.8103 112.974C97.8647 112.974 99.7346 116.361 99.7346 120.01C99.7346 123.659 97.8647 127.096 93.8103 127.096ZM93.8103 125.599C96.4076 125.599 97.5527 123.473 97.5527 120.007C97.5527 116.542 96.4101 114.469 93.8103 114.469C91.2106 114.469 90.068 116.542 90.068 120.007C90.068 123.473 91.2106 125.599 93.8103 125.599Z" fill="currentColor"/>
  <path d="M102.382 113.236H104.096L104.355 116.859H104.408C105.136 114.156 106.384 112.974 107.838 112.974C108.307 112.974 108.591 113.106 108.8 113.236V115.257C108.488 115.153 108.203 115.125 107.969 115.125C106.047 115.125 104.436 117.093 104.436 120.086V126.832H102.382V113.236Z" fill="currentColor"/>
  <path d="M116.204 108.039H118.411V126.832H116.204V108.039Z" fill="currentColor"/>
  <path d="M124.335 126.835H122.282V113.239H123.996L124.255 116.73H124.308C125.244 114.078 126.905 112.977 129.009 112.977C131.868 112.977 132.308 114.525 132.334 116.704H132.359C133.217 114.131 134.906 112.977 137.01 112.977C139.919 112.977 140.334 114.736 140.334 116.966V126.837H138.281V117.388C138.281 115.446 137.918 114.553 136.383 114.553C134.304 114.553 132.331 117.073 132.331 119.776V126.837H130.28V117.388C130.28 115.446 129.915 114.553 128.382 114.553C126.331 114.553 124.33 116.994 124.33 119.697V126.837L124.335 126.835Z" fill="currentColor"/>
  <path d="M145.821 126.835H143.767V113.239H145.481L145.74 116.73H145.793C146.729 114.078 148.39 112.977 150.494 112.977C153.353 112.977 153.794 114.525 153.819 116.704H153.844C154.702 114.131 156.391 112.977 158.495 112.977C161.404 112.977 161.819 114.736 161.819 116.966V126.837H159.766V117.388C159.766 115.446 159.403 114.553 157.868 114.553C155.789 114.553 153.816 117.073 153.816 119.776V126.837H151.765V117.388C151.765 115.446 151.4 114.553 149.867 114.553C147.816 114.553 145.816 116.994 145.816 119.697V126.837L145.821 126.835Z" fill="currentColor"/>
  <path d="M165.252 108.512H167.306V110.82H165.252V108.512ZM165.252 113.236H167.306V126.832H165.252V113.236Z" fill="currentColor"/>
  <path d="M168.942 130.298L170.968 130.036C171.332 131.323 172.553 132.502 175.722 132.502C180.164 132.502 180.841 131.137 180.841 130.008C180.841 128.958 180.166 128.406 178.711 128.406H173.436C171.826 128.406 170.112 127.882 170.112 125.782C170.112 124.366 170.97 123.71 172.191 123.237V123.211C171.073 122.214 170.346 120.612 170.346 118.723C170.346 115.336 172.606 112.974 175.593 112.974C177.569 112.974 179.205 114.024 180.113 115.705H180.191C180.191 113.447 181.412 112.974 182.27 112.974C182.841 112.974 183.284 113.157 183.594 113.368L183.438 115.049C183.282 114.97 182.917 114.812 182.476 114.812C181.047 114.812 180.841 116.493 180.841 118.461C180.841 122.11 178.606 124.472 175.618 124.472C174.682 124.472 173.799 124.236 173.046 123.816C172.5 124.078 171.876 124.577 171.876 125.39C171.876 126.1 172.344 126.494 173.2 126.494H178.837C181.357 126.494 182.761 127.648 182.761 129.749C182.761 132.243 180.813 134 175.719 134C172.317 134 169.405 133.133 168.939 130.298H168.942ZM178.787 118.723C178.787 115.522 177.254 114.472 175.591 114.472C173.927 114.472 172.395 115.522 172.395 118.723C172.395 121.925 173.927 122.975 175.591 122.975C177.254 122.975 178.787 121.925 178.787 118.723Z" fill="currentColor"/>
  <path d="M184.736 113.236H186.45L186.71 116.859H186.762C187.49 114.156 188.738 112.974 190.193 112.974C190.661 112.974 190.945 113.106 191.154 113.236V115.257C190.842 115.153 190.558 115.125 190.324 115.125C188.401 115.125 186.79 117.093 186.79 120.086V126.832H184.736V113.236Z" fill="currentColor"/>
  <path d="M192.037 123.473C192.037 120.979 193.985 120.193 195.752 119.483C197.076 118.96 198.817 118.38 199.726 118.014V117.068C199.726 115.283 198.921 114.469 197.363 114.469C195.596 114.469 194.738 115.415 194.348 117.487L192.503 117.251C192.84 114.362 194.529 112.972 197.36 112.972C200.192 112.972 201.777 114.284 201.777 117.04V123.997C201.777 124.732 202.064 125.151 202.53 125.388C202.945 125.624 203.544 125.678 204.193 125.678V126.807C203.778 127.018 203.207 127.096 202.713 127.096C200.843 127.096 200.063 126.151 199.932 124.551H199.723C199.099 125.967 197.932 127.096 195.853 127.096C193.437 127.096 192.032 125.652 192.032 123.473H192.037ZM199.726 119.458C198.868 119.773 197.906 120.114 196.479 120.719C195.284 121.218 194.089 121.716 194.089 123.371C194.089 124.633 194.791 125.576 196.401 125.576C198.324 125.576 199.726 124.264 199.726 122.453V119.458Z" fill="currentColor"/>
  <path d="M205.91 113.236H207.623L207.857 116.544H207.91C208.847 113.971 210.613 112.974 212.717 112.974C215.523 112.974 216.226 114.734 216.226 116.964V126.835H214.172V117.386C214.172 115.339 213.548 114.551 212.015 114.551C209.652 114.551 207.963 116.992 207.963 119.695V126.835H205.91V113.236Z" fill="currentColor"/>
  <path d="M222.588 126.598C220.952 125.995 220.796 125.261 220.796 122.687V114.917H217.887V113.236H220.796V107.802H222.875V113.236H226.433V114.917H222.875V122.817C222.875 124.208 222.9 124.917 223.68 125.205C223.992 125.309 224.485 125.362 225.004 125.362H226.849V126.832H224.926C224.12 126.832 223.159 126.807 222.588 126.596V126.598Z" fill="currentColor"/>
  <path d="M234.537 126.835V108.041H241.76C246.152 108.041 247.684 110.246 247.684 113.343C247.684 115.837 246.542 117.411 243.917 118.042V118.146C244.722 118.408 245.709 121.035 246.049 122.161C246.932 125.126 247.088 125.311 247.815 126.362V126.835H245.087C244.775 126.232 244.516 125.261 244.229 124.21C243.864 122.82 243.476 121.375 243.137 120.246C242.799 119.143 242.331 118.644 240.902 118.644H236.744V126.835H234.537ZM241.76 116.753C244.513 116.753 245.346 115.519 245.346 113.366C245.346 111.212 244.516 109.928 241.76 109.928H236.747V116.753H241.76Z" fill="currentColor"/>
  <path d="M250.903 108.512H252.957V110.82H250.903V108.512ZM250.903 113.236H252.957V126.832H250.903V113.236Z" fill="currentColor"/>
  <path d="M254.593 130.298L256.619 130.036C256.981 131.323 258.204 132.502 261.373 132.502C265.815 132.502 266.492 131.137 266.492 130.008C266.492 128.958 265.817 128.406 264.363 128.406H259.088C257.477 128.406 255.763 127.882 255.763 125.782C255.763 124.366 256.621 123.71 257.842 123.237V123.211C256.724 122.214 255.997 120.612 255.997 118.723C255.997 115.336 258.257 112.974 261.244 112.974C263.22 112.974 264.856 114.024 265.764 115.705H265.842C265.842 113.447 267.063 112.974 267.921 112.974C268.493 112.974 268.935 113.157 269.245 113.368L269.089 115.049C268.933 114.97 268.568 114.812 268.128 114.812C266.698 114.812 266.492 116.493 266.492 118.461C266.492 122.11 264.257 124.472 261.27 124.472C260.333 124.472 259.45 124.236 258.698 123.816C258.151 124.078 257.527 124.577 257.527 125.39C257.527 126.1 257.995 126.494 258.851 126.494H264.488C267.008 126.494 268.412 127.648 268.412 129.749C268.412 132.243 266.464 134 261.37 134C257.968 134 255.056 133.133 254.59 130.298H254.593ZM264.441 118.723C264.441 115.522 262.908 114.472 261.244 114.472C259.581 114.472 258.048 115.522 258.048 118.723C258.048 121.925 259.581 122.975 261.244 122.975C262.908 122.975 264.441 121.925 264.441 118.723Z" fill="currentColor"/>
  <path d="M270.388 106.307H272.492V116.44H272.544C273.403 114.052 275.038 112.974 277.142 112.974C280.052 112.974 280.701 114.734 280.701 116.964V126.835H278.647V117.386C278.647 115.339 278.023 114.551 276.491 114.551C274.153 114.551 272.439 117.254 272.439 119.959V126.837H270.385V106.31L270.388 106.307Z" fill="currentColor"/>
  <path d="M287.066 126.598C285.43 125.995 285.274 125.261 285.274 122.687V114.917H282.365V113.236H285.274V107.802H287.353V113.236H290.911V114.917H287.353V122.817C287.353 124.208 287.378 124.917 288.158 125.205C288.47 125.309 288.963 125.362 289.482 125.362H291.327V126.832H289.404C288.599 126.832 287.637 126.807 287.066 126.596V126.598Z" fill="currentColor"/>
  <path d="M292.653 122.921L294.342 122.37C294.551 124.574 295.512 125.571 297.432 125.571C298.94 125.571 300.107 124.968 300.107 123.575C300.107 122.181 299.665 121.869 297.067 120.923C295.016 120.188 293.066 119.428 293.066 116.775C293.066 114.467 294.729 112.969 297.196 112.969C300.158 112.969 301.248 114.779 301.482 117.195L299.74 117.561C299.559 115.357 298.857 114.49 297.193 114.49C295.66 114.49 294.802 115.278 294.802 116.486C294.802 117.981 295.686 118.166 297.739 119.084C299.79 120.002 302 120.475 302 123.178C302 125.645 300.286 127.089 297.427 127.089C294.284 127.089 292.932 125.329 292.648 122.916L292.653 122.921Z" fill="currentColor"/>
  <path d="M24.0849 77.3909L20.7352 93.4H0.380025L22.1521 0.203419H46.2999C48.1547 0.203419 49.7654 1.49259 50.1882 3.31574L71.1096 93.4H47.5331L44.5709 77.3909H24.0849ZM27.8222 59.1696H41.2212L37.9998 41.467L35.166 23.8942H34.5217L31.4287 41.467L27.8222 59.1696Z" fill="currentColor"/>
  <path d="M97.0544 93.4026H75.154V23.3729H90.5713C92.2047 23.3729 93.6241 24.512 93.9915 26.1191L96.4101 36.6486C101.177 25.5851 108.649 22.071 114.188 22.071C122.82 22.071 127.199 28.0592 127.715 36.6486H127.844C131.45 25.5851 139.567 22.071 144.849 22.071C153.995 22.071 158.376 28.7101 158.376 38.0801V93.4H136.476V42.7664C136.476 39.6414 135.316 37.9504 133.255 37.9504C129.905 37.9504 127.844 43.2877 127.844 54.6105L127.715 93.4H105.815V42.7664C105.815 39.6414 104.655 37.9504 102.594 37.9504C99.1155 37.9504 97.0544 42.1154 97.0544 50.9667V93.4026Z" fill="currentColor"/>
  <path d="M167.917 0H185.826V14.0029C185.826 16.2303 184.039 18.0382 181.832 18.0382H163.923V4.03533C163.923 1.80789 165.71 0 167.917 0ZM163.923 23.3729H185.824V93.4H163.923V23.3729Z" fill="currentColor"/>
  <path d="M189.798 60.9902V55.653C189.798 32.8751 202.296 22.071 218.397 22.071C231.968 22.071 240.96 26.1343 241.843 44.6785C241.924 46.3847 240.57 47.8163 238.878 47.8315L226.255 47.9587C226.126 38.5861 223.806 36.0307 219.684 36.0307C213.865 36.0307 211.328 40.9458 211.328 53.0518V63.594C211.328 76.4806 214.992 80.1244 219.684 80.1244C224.707 80.1244 226.511 76.7552 227.027 67.6446H242.9C242.9 86.0896 235.712 94.7019 217.106 94.7019C202.678 94.7019 189.795 84.1572 189.795 60.9902H189.798Z" fill="currentColor"/>
  <path d="M246.497 77.2612C246.497 64.3746 254.87 60.2096 261.569 56.5659C266.592 53.8324 270.974 51.6202 274.709 49.6674V42.5096C274.709 38.3446 273.292 36.1324 269.814 36.1324C265.032 36.1324 263.927 40.3381 263.691 44.943C263.608 46.5474 262.294 47.8061 260.703 47.8061H247.785C247.785 28.8652 257.283 22.0761 273.423 22.0761C289.562 22.0761 296.483 28.8449 296.483 42.7715V73.62C296.483 77.3935 296.871 79.4785 298.029 80.6482C298.673 81.6907 299.833 81.9501 301.378 81.9501V92.4948C299.961 93.6645 294.422 94.707 291.201 94.707C283.985 94.707 278.061 91.7116 277.545 81.6907H276.773C274.067 90.8013 268.785 94.707 261.056 94.707C252.167 94.707 246.497 88.9807 246.497 77.2638V77.2612ZM274.711 72.8369V61.9031C273.551 62.6837 272.779 63.0753 270.717 64.5068C267.884 66.4597 267.111 68.9312 267.111 74.3981C267.111 79.865 268.528 81.4288 270.846 81.4288C274.452 81.4288 274.711 77.3935 274.711 72.8369Z" fill="currentColor"/>
</svg>
