<svg width="24" height="24" viewBox="0 0 24 24" fill="none"
  xmlns="http://www.w3.org/2000/svg">
  <path d="M12.8078 5.65655C12.4172 5.26603 12.4172 4.63286 12.8078 4.24234L15.6362 1.41391C15.6944 1.3557 15.7553 1.30183 15.8185 1.25229C16.4973 0.72028 17.4407 0.688727 18.1509 1.15763C18.2618 1.23085 18.367 1.31628 18.4646 1.41391L21.293 4.24234C21.6836 4.63286 21.6836 5.26603 21.293 5.65655C20.9025 6.04708 20.2694 6.04708 19.8788 5.65655L18.0001 3.77785L18.0001 17.9997C18.0001 18.552 17.5524 18.9997 17.0001 18.9997C16.4478 18.9997 16.0001 18.552 16.0001 17.9997L16.0001 3.8784L14.222 5.65655C13.8314 6.04708 13.1983 6.04708 12.8078 5.65655Z" fill="currentColor"/>
  <path d="M11.293 18.3429C11.6836 18.7334 11.6836 19.3665 11.293 19.7571L8.46462 22.5855C8.36699 22.6831 8.26178 22.7686 8.15088 22.8418C7.37457 23.3543 6.31961 23.2689 5.63619 22.5855L2.80776 19.7571C2.41723 19.3665 2.41723 18.7334 2.80776 18.3429C3.19828 17.9523 3.83145 17.9523 4.22197 18.3429L6.00015 20.121L6.00015 5.9997C6.00015 5.44742 6.44787 4.9997 7.00015 4.9997C7.55244 4.9997 8.00015 5.44742 8.00015 5.9997L8.00015 20.2215L9.87883 18.3429C10.2694 17.9523 10.9025 17.9523 11.293 18.3429Z" fill="currentColor"/>
</svg>
