<svg width="24" height="24" viewBox="0 0 24 24" fill="none" xmlns="http://www.w3.org/2000/svg">
  <path fill-rule="evenodd" clip-rule="evenodd" d="M6.96079 15.6244C5.7286 14.084 4.99179 12.1301 4.99179 10.0041C4.99179 5.03128 9.02307 1 13.9959 1C18.9687 1 23 5.03127 23 10.0041C23 14.9769 18.9687 19.0082 13.9959 19.0082C11.8699 19.0082 9.91602 18.2714 8.37565 17.0392L2.70789 22.707C2.31718 23.0977 1.68373 23.0977 1.29303 22.707C0.902327 22.3163 0.902326 21.6828 1.29303 21.2921L6.96079 15.6244ZM13.9959 17.0173C17.8692 17.0173 21.0091 13.8774 21.0091 10.0041C21.0091 6.1308 17.8692 2.99087 13.9959 2.99087C10.1226 2.99087 6.98266 6.1308 6.98266 10.0041C6.98267 13.8774 10.1226 17.0173 13.9959 17.0173Z" fill="currentColor"/>
</svg>
